<svg xmlns="http://www.w3.org/2000/svg" viewBox="0 0 1200 800"><rect width="100%" height="100%" fill="#f4f4f3"/><circle cx="1077.1" cy="400.0" r="2.6" fill="#111"/><circle cx="1077.1" cy="404.2" r="2.6" fill="#111"/><circle cx="1081.7" cy="408.4" r="2.6" fill="#111"/><circle cx="1074.3" cy="412.4" r="2.6" fill="#111"/><circle cx="1079.6" cy="416.7" r="2.6" fill="#111"/><circle cx="1052.4" cy="419.8" r="2.6" fill="#111"/><circle cx="984.4" cy="420.1" r="2.6" fill="#111"/><circle cx="927.5" cy="420.0" r="2.6" fill="#111"/><circle cx="903.4" cy="421.2" r="2.6" fill="#111"/><circle cx="898.7" cy="423.5" r="2.6" fill="#111"/><circle cx="901.0" cy="426.3" r="2.6" fill="#111"/><circle cx="899.3" cy="428.8" r="2.6" fill="#111"/><circle cx="898.2" cy="431.3" r="2.6" fill="#111"/><circle cx="900.4" cy="434.2" r="2.6" fill="#111"/><circle cx="896.9" cy="436.5" r="2.6" fill="#111"/><circle cx="899.1" cy="439.4" r="2.6" fill="#111"/><circle cx="901.7" cy="442.4" r="2.6" fill="#111"/><circle cx="900.1" cy="444.9" r="2.6" fill="#111"/><circle cx="899.0" cy="447.4" r="2.6" fill="#111"/><circle cx="905.4" cy="451.1" r="2.6" fill="#111"/><circle cx="900.1" cy="452.9" r="2.6" fill="#111"/><circle cx="898.6" cy="455.3" r="2.6" fill="#111"/><circle cx="900.4" cy="458.4" r="2.6" fill="#111"/><circle cx="898.7" cy="460.8" r="2.6" fill="#111"/><circle cx="899.1" cy="463.6" r="2.6" fill="#111"/><circle cx="899.1" cy="466.3" r="2.6" fill="#111"/><circle cx="904.9" cy="470.4" r="2.6" fill="#111"/><circle cx="900.1" cy="472.0" r="2.6" fill="#111"/><circle cx="900.4" cy="474.9" r="2.6" fill="#111"/><circle cx="901.6" cy="478.0" r="2.6" fill="#111"/><circle cx="904.9" cy="481.7" r="2.6" fill="#111"/><circle cx="899.5" cy="483.0" r="2.6" fill="#111"/><circle cx="898.5" cy="485.6" r="2.6" fill="#111"/><circle cx="905.9" cy="490.6" r="2.6" fill="#111"/><circle cx="896.5" cy="490.7" r="2.6" fill="#111"/><circle cx="899.1" cy="494.3" r="2.6" fill="#111"/><circle cx="901.6" cy="498.0" r="2.6" fill="#111"/><circle cx="905.4" cy="502.2" r="2.6" fill="#111"/><circle cx="897.8" cy="502.5" r="2.6" fill="#111"/><circle cx="894.3" cy="504.2" r="2.6" fill="#111"/><circle cx="901.6" cy="509.8" r="2.6" fill="#111"/><circle cx="898.8" cy="511.7" r="2.6" fill="#111"/><circle cx="899.1" cy="514.8" r="2.6" fill="#111"/><circle cx="901.1" cy="518.6" r="2.6" fill="#111"/><circle cx="900.5" cy="521.4" r="2.6" fill="#111"/><circle cx="900.7" cy="524.5" r="2.6" fill="#111"/><circle cx="899.0" cy="526.9" r="2.6" fill="#111"/><circle cx="903.0" cy="531.7" r="2.6" fill="#111"/><circle cx="903.4" cy="535.1" r="2.6" fill="#111"/><circle cx="900.1" cy="536.8" r="2.6" fill="#111"/><circle cx="899.0" cy="539.4" r="2.6" fill="#111"/><circle cx="901.7" cy="543.9" r="2.6" fill="#111"/><circle cx="901.1" cy="546.8" r="2.6" fill="#111"/><circle cx="897.7" cy="548.4" r="2.6" fill="#111"/><circle cx="899.0" cy="552.3" r="2.6" fill="#111"/><circle cx="902.3" cy="557.4" r="2.6" fill="#111"/><circle cx="899.8" cy="559.4" r="2.6" fill="#111"/><circle cx="899.3" cy="562.5" r="2.6" fill="#111"/><circle cx="817.0" cy="520.3" r="2.6" fill="#111"/><circle cx="812.0" cy="520.0" r="2.6" fill="#111"/><circle cx="807.8" cy="520.0" r="2.6" fill="#111"/><circle cx="799.6" cy="517.6" r="2.6" fill="#111"/><circle cx="803.5" cy="522.3" r="2.6" fill="#111"/><circle cx="796.2" cy="520.3" r="2.6" fill="#111"/><circle cx="790.2" cy="518.8" r="2.6" fill="#111"/><circle cx="790.4" cy="521.3" r="2.6" fill="#111"/><circle cx="785.4" cy="520.4" r="2.6" fill="#111"/><circle cx="781.3" cy="520.0" r="2.6" fill="#111"/><circle cx="780.1" cy="521.5" r="2.6" fill="#111"/><circle cx="779.3" cy="523.2" r="2.6" fill="#111"/><circle cx="772.5" cy="520.8" r="2.6" fill="#111"/><circle cx="771.5" cy="522.3" r="2.6" fill="#111"/><circle cx="769.5" cy="523.2" r="2.6" fill="#111"/><circle cx="760.1" cy="518.5" r="2.6" fill="#111"/><circle cx="758.2" cy="519.2" r="2.6" fill="#111"/><circle cx="757.9" cy="521.2" r="2.6" fill="#111"/><circle cx="750.2" cy="517.4" r="2.6" fill="#111"/><circle cx="750.3" cy="519.6" r="2.6" fill="#111"/><circle cx="750.7" cy="522.0" r="2.6" fill="#111"/><circle cx="747.6" cy="521.7" r="2.6" fill="#111"/><circle cx="744.1" cy="520.9" r="2.6" fill="#111"/><circle cx="736.9" cy="516.9" r="2.6" fill="#111"/><circle cx="742.5" cy="523.9" r="2.6" fill="#111"/><circle cx="736.7" cy="520.9" r="2.6" fill="#111"/><circle cx="734.7" cy="521.3" r="2.6" fill="#111"/><circle cx="731.9" cy="520.8" r="2.6" fill="#111"/><circle cx="725.5" cy="517.1" r="2.6" fill="#111"/><circle cx="723.9" cy="517.5" r="2.6" fill="#111"/><circle cx="722.1" cy="517.9" r="2.6" fill="#111"/><circle cx="725.5" cy="523.4" r="2.6" fill="#111"/><circle cx="718.5" cy="518.5" r="2.6" fill="#111"/><circle cx="717.5" cy="519.6" r="2.6" fill="#111"/><circle cx="715.4" cy="519.5" r="2.6" fill="#111"/><circle cx="714.9" cy="521.0" r="2.6" fill="#111"/><circle cx="712.8" cy="520.9" r="2.6" fill="#111"/><circle cx="710.4" cy="520.5" r="2.6" fill="#111"/><circle cx="705.9" cy="517.7" r="2.6" fill="#111"/><circle cx="701.0" cy="514.1" r="2.6" fill="#111"/><circle cx="704.6" cy="520.3" r="2.6" fill="#111"/><circle cx="702.9" cy="520.5" r="2.6" fill="#111"/><circle cx="702.7" cy="522.4" r="2.6" fill="#111"/><circle cx="699.8" cy="521.1" r="2.6" fill="#111"/><circle cx="699.0" cy="522.3" r="2.6" fill="#111"/><circle cx="700.6" cy="526.5" r="2.6" fill="#111"/><circle cx="697.6" cy="524.9" r="2.6" fill="#111"/><circle cx="698.4" cy="528.3" r="2.6" fill="#111"/><circle cx="698.5" cy="530.7" r="2.6" fill="#111"/><circle cx="700.4" cy="535.7" r="2.6" fill="#111"/><circle cx="703.1" cy="541.9" r="2.6" fill="#111"/><circle cx="701.1" cy="541.7" r="2.6" fill="#111"/><circle cx="701.6" cy="545.2" r="2.6" fill="#111"/><circle cx="700.3" cy="546.0" r="2.6" fill="#111"/><circle cx="700.4" cy="548.8" r="2.6" fill="#111"/><circle cx="699.4" cy="550.1" r="2.6" fill="#111"/><circle cx="699.6" cy="553.4" r="2.6" fill="#111"/><circle cx="696.7" cy="551.8" r="2.6" fill="#111"/><circle cx="698.4" cy="557.5" r="2.6" fill="#111"/><circle cx="698.3" cy="560.4" r="2.6" fill="#111"/><circle cx="701.1" cy="568.2" r="2.6" fill="#111"/><circle cx="700.8" cy="571.2" r="2.6" fill="#111"/><circle cx="701.4" cy="575.7" r="2.6" fill="#111"/><circle cx="701.9" cy="580.1" r="2.6" fill="#111"/><circle cx="699.6" cy="579.7" r="2.6" fill="#111"/><circle cx="701.3" cy="586.5" r="2.6" fill="#111"/><circle cx="702.3" cy="592.4" r="2.6" fill="#111"/><circle cx="700.0" cy="592.1" r="2.6" fill="#111"/><circle cx="701.2" cy="598.7" r="2.6" fill="#111"/><circle cx="699.8" cy="600.2" r="2.6" fill="#111"/><circle cx="698.2" cy="601.4" r="2.6" fill="#111"/><circle cx="700.1" cy="609.9" r="2.6" fill="#111"/><circle cx="699.1" cy="612.6" r="2.6" fill="#111"/><circle cx="700.1" cy="619.7" r="2.6" fill="#111"/><circle cx="724.2" cy="678.9" r="2.6" fill="#111"/><circle cx="722.1" cy="680.7" r="2.6" fill="#111"/><circle cx="716.8" cy="675.1" r="2.6" fill="#111"/><circle cx="718.0" cy="684.8" r="2.6" fill="#111"/><circle cx="714.4" cy="683.2" r="2.6" fill="#111"/><circle cx="710.0" cy="679.2" r="2.6" fill="#111"/><circle cx="706.7" cy="677.9" r="2.6" fill="#111"/><circle cx="704.7" cy="680.0" r="2.6" fill="#111"/><circle cx="702.5" cy="681.6" r="2.6" fill="#111"/><circle cx="699.5" cy="681.0" r="2.6" fill="#111"/><circle cx="696.7" cy="680.9" r="2.6" fill="#111"/><circle cx="692.1" cy="675.3" r="2.6" fill="#111"/><circle cx="690.1" cy="677.3" r="2.6" fill="#111"/><circle cx="689.3" cy="683.2" r="2.6" fill="#111"/><circle cx="685.8" cy="680.6" r="2.6" fill="#111"/><circle cx="681.9" cy="676.4" r="2.6" fill="#111"/><circle cx="679.7" cy="677.9" r="2.6" fill="#111"/><circle cx="676.7" cy="676.5" r="2.6" fill="#111"/><circle cx="674.4" cy="677.5" r="2.6" fill="#111"/><circle cx="673.2" cy="682.9" r="2.6" fill="#111"/><circle cx="669.7" cy="679.5" r="2.6" fill="#111"/><circle cx="667.9" cy="682.8" r="2.6" fill="#111"/><circle cx="664.7" cy="680.5" r="2.6" fill="#111"/><circle cx="661.3" cy="676.3" r="2.6" fill="#111"/><circle cx="659.2" cy="678.4" r="2.6" fill="#111"/><circle cx="658.1" cy="685.7" r="2.6" fill="#111"/><circle cx="654.1" cy="678.1" r="2.6" fill="#111"/><circle cx="651.4" cy="677.4" r="2.6" fill="#111"/><circle cx="649.9" cy="683.1" r="2.6" fill="#111"/><circle cx="646.9" cy="680.2" r="2.6" fill="#111"/><circle cx="644.3" cy="680.0" r="2.6" fill="#111"/><circle cx="642.4" cy="683.7" r="2.6" fill="#111"/><circle cx="638.7" cy="675.6" r="2.6" fill="#111"/><circle cx="637.0" cy="681.1" r="2.6" fill="#111"/><circle cx="634.1" cy="677.3" r="2.6" fill="#111"/><circle cx="631.5" cy="676.5" r="2.6" fill="#111"/><circle cx="629.2" cy="677.9" r="2.6" fill="#111"/><circle cx="627.2" cy="682.9" r="2.6" fill="#111"/><circle cx="624.5" cy="679.6" r="2.6" fill="#111"/><circle cx="621.7" cy="675.3" r="2.6" fill="#111"/><circle cx="619.4" cy="677.2" r="2.6" fill="#111"/><circle cx="617.4" cy="683.9" r="2.6" fill="#111"/><circle cx="614.8" cy="682.6" r="2.6" fill="#111"/><circle cx="612.1" cy="677.2" r="2.6" fill="#111"/><circle cx="610.0" cy="686.2" r="2.6" fill="#111"/><circle cx="607.3" cy="679.1" r="2.6" fill="#111"/><circle cx="604.8" cy="677.0" r="2.6" fill="#111"/><circle cx="602.4" cy="679.7" r="2.6" fill="#111"/><circle cx="600.0" cy="682.4" r="2.6" fill="#111"/><circle cx="597.5" cy="684.1" r="2.6" fill="#111"/><circle cx="595.1" cy="682.6" r="2.6" fill="#111"/><circle cx="592.7" cy="678.9" r="2.6" fill="#111"/><circle cx="590.3" cy="678.6" r="2.6" fill="#111"/><circle cx="587.9" cy="676.3" r="2.6" fill="#111"/><circle cx="585.3" cy="679.8" r="2.6" fill="#111"/><circle cx="583.0" cy="678.5" r="2.6" fill="#111"/><circle cx="580.4" cy="680.6" r="2.6" fill="#111"/><circle cx="578.2" cy="676.8" r="2.6" fill="#111"/><circle cx="575.6" cy="678.7" r="2.6" fill="#111"/><circle cx="573.3" cy="677.8" r="2.6" fill="#111"/><circle cx="570.9" cy="676.9" r="2.6" fill="#111"/><circle cx="568.4" cy="677.0" r="2.6" fill="#111"/><circle cx="565.9" cy="677.4" r="2.6" fill="#111"/><circle cx="563.5" cy="677.0" r="2.6" fill="#111"/><circle cx="560.4" cy="681.4" r="2.6" fill="#111"/><circle cx="558.1" cy="680.3" r="2.6" fill="#111"/><circle cx="556.2" cy="676.7" r="2.6" fill="#111"/><circle cx="552.9" cy="681.3" r="2.6" fill="#111"/><circle cx="550.5" cy="680.7" r="2.6" fill="#111"/><circle cx="547.4" cy="683.7" r="2.6" fill="#111"/><circle cx="545.7" cy="679.5" r="2.6" fill="#111"/><circle cx="543.1" cy="679.5" r="2.6" fill="#111"/><circle cx="540.9" cy="678.3" r="2.6" fill="#111"/><circle cx="537.9" cy="680.3" r="2.6" fill="#111"/><circle cx="535.1" cy="681.2" r="2.6" fill="#111"/><circle cx="532.7" cy="680.4" r="2.6" fill="#111"/><circle cx="530.3" cy="679.4" r="2.6" fill="#111"/><circle cx="527.2" cy="681.4" r="2.6" fill="#111"/><circle cx="524.9" cy="680.2" r="2.6" fill="#111"/><circle cx="522.2" cy="680.6" r="2.6" fill="#111"/><circle cx="520.4" cy="677.7" r="2.6" fill="#111"/><circle cx="516.9" cy="680.5" r="2.6" fill="#111"/><circle cx="515.1" cy="677.6" r="2.6" fill="#111"/><circle cx="512.4" cy="677.9" r="2.6" fill="#111"/><circle cx="508.9" cy="680.4" r="2.6" fill="#111"/><circle cx="504.6" cy="685.1" r="2.6" fill="#111"/><circle cx="502.8" cy="682.4" r="2.6" fill="#111"/><circle cx="500.8" cy="680.0" r="2.6" fill="#111"/><circle cx="498.2" cy="679.6" r="2.6" fill="#111"/><circle cx="494.4" cy="682.4" r="2.6" fill="#111"/><circle cx="491.3" cy="683.3" r="2.6" fill="#111"/><circle cx="488.6" cy="682.9" r="2.6" fill="#111"/><circle cx="487.1" cy="679.6" r="2.6" fill="#111"/><circle cx="483.8" cy="680.4" r="2.6" fill="#111"/><circle cx="481.5" cy="679.2" r="2.6" fill="#111"/><circle cx="478.5" cy="679.3" r="2.6" fill="#111"/><circle cx="476.2" cy="678.0" r="2.6" fill="#111"/><circle cx="472.7" cy="679.4" r="2.6" fill="#111"/><circle cx="471.8" cy="675.0" r="2.6" fill="#111"/><circle cx="467.8" cy="677.2" r="2.6" fill="#111"/><circle cx="463.0" cy="681.0" r="2.6" fill="#111"/><circle cx="461.5" cy="677.9" r="2.6" fill="#111"/><circle cx="456.7" cy="681.2" r="2.6" fill="#111"/><circle cx="455.8" cy="677.1" r="2.6" fill="#111"/><circle cx="451.6" cy="679.2" r="2.6" fill="#111"/><circle cx="447.5" cy="680.9" r="2.6" fill="#111"/><circle cx="446.1" cy="677.7" r="2.6" fill="#111"/><circle cx="442.5" cy="678.4" r="2.6" fill="#111"/><circle cx="435.2" cy="685.5" r="2.6" fill="#111"/><circle cx="436.0" cy="678.5" r="2.6" fill="#111"/><circle cx="432.7" cy="678.5" r="2.6" fill="#111"/><circle cx="429.2" cy="678.7" r="2.6" fill="#111"/><circle cx="425.0" cy="680.1" r="2.6" fill="#111"/><circle cx="421.7" cy="679.9" r="2.6" fill="#111"/><circle cx="416.8" cy="682.1" r="2.6" fill="#111"/><circle cx="413.6" cy="681.7" r="2.6" fill="#111"/><circle cx="411.7" cy="679.1" r="2.6" fill="#111"/><circle cx="408.1" cy="679.2" r="2.6" fill="#111"/><circle cx="406.0" cy="677.0" r="2.6" fill="#111"/><circle cx="402.5" cy="676.9" r="2.6" fill="#111"/><circle cx="397.7" cy="678.5" r="2.6" fill="#111"/><circle cx="391.7" cy="681.5" r="2.6" fill="#111"/><circle cx="388.8" cy="680.2" r="2.6" fill="#111"/><circle cx="383.9" cy="681.6" r="2.6" fill="#111"/><circle cx="379.8" cy="681.9" r="2.6" fill="#111"/><circle cx="377.5" cy="679.7" r="2.6" fill="#111"/><circle cx="369.9" cy="684.2" r="2.6" fill="#111"/><circle cx="370.0" cy="679.0" r="2.6" fill="#111"/><circle cx="366.1" cy="678.8" r="2.6" fill="#111"/><circle cx="361.6" cy="679.2" r="2.6" fill="#111"/><circle cx="354.7" cy="682.2" r="2.6" fill="#111"/><circle cx="352.5" cy="679.7" r="2.6" fill="#111"/><circle cx="349.2" cy="678.6" r="2.6" fill="#111"/><circle cx="342.7" cy="680.8" r="2.6" fill="#111"/><circle cx="336.9" cy="682.1" r="2.6" fill="#111"/><circle cx="334.5" cy="679.8" r="2.6" fill="#111"/><circle cx="330.1" cy="679.5" r="2.6" fill="#111"/><circle cx="322.9" cy="682.0" r="2.6" fill="#111"/><circle cx="318.2" cy="681.8" r="2.6" fill="#111"/><circle cx="313.3" cy="681.7" r="2.6" fill="#111"/><circle cx="311.5" cy="678.6" r="2.6" fill="#111"/><circle cx="304.4" cy="680.5" r="2.6" fill="#111"/><circle cx="299.1" cy="680.6" r="2.6" fill="#111"/><circle cx="297.8" cy="676.9" r="2.6" fill="#111"/><circle cx="286.7" cy="682.1" r="2.6" fill="#111"/><circle cx="283.3" cy="680.2" r="2.6" fill="#111"/><circle cx="278.6" cy="679.4" r="2.6" fill="#111"/><circle cx="267.8" cy="683.8" r="2.6" fill="#111"/><circle cx="266.0" cy="680.2" r="2.6" fill="#111"/><circle cx="261.8" cy="678.8" r="2.6" fill="#111"/><circle cx="254.4" cy="679.9" r="2.6" fill="#111"/><circle cx="246.9" cy="680.9" r="2.6" fill="#111"/><circle cx="240.0" cy="681.3" r="2.6" fill="#111"/><circle cx="235.2" cy="679.9" r="2.6" fill="#111"/><circle cx="230.2" cy="678.7" r="2.6" fill="#111"/><circle cx="223.0" cy="678.9" r="2.6" fill="#111"/><circle cx="216.3" cy="678.8" r="2.6" fill="#111"/><circle cx="209.6" cy="678.4" r="2.6" fill="#111"/><circle cx="200.2" cy="680.0" r="2.6" fill="#111"/><circle cx="193.6" cy="679.3" r="2.6" fill="#111"/><circle cx="184.8" cy="680.1" r="2.6" fill="#111"/><circle cx="178.7" cy="678.8" r="2.6" fill="#111"/><circle cx="170.7" cy="678.8" r="2.6" fill="#111"/><circle cx="160.9" cy="679.7" r="2.6" fill="#111"/><circle cx="152.7" cy="679.5" r="2.6" fill="#111"/><circle cx="140.6" cy="681.5" r="2.6" fill="#111"/><circle cx="136.0" cy="678.8" r="2.6" fill="#111"/><circle cx="124.2" cy="680.3" r="2.6" fill="#111"/><circle cx="120.1" cy="677.1" r="2.6" fill="#111"/><circle cx="122.9" cy="669.9" r="2.6" fill="#111"/><circle cx="118.4" cy="667.0" r="2.6" fill="#111"/><circle cx="119.6" cy="660.8" r="2.6" fill="#111"/><circle cx="124.7" cy="652.7" r="2.6" fill="#111"/><circle cx="118.6" cy="650.6" r="2.6" fill="#111"/><circle cx="117.9" cy="645.7" r="2.6" fill="#111"/><circle cx="121.8" cy="638.4" r="2.6" fill="#111"/><circle cx="116.1" cy="636.0" r="2.6" fill="#111"/><circle cx="119.6" cy="629.1" r="2.6" fill="#111"/><circle cx="122.7" cy="622.6" r="2.6" fill="#111"/><circle cx="118.7" cy="619.3" r="2.6" fill="#111"/><circle cx="120.8" cy="613.3" r="2.6" fill="#111"/><circle cx="123.1" cy="607.3" r="2.6" fill="#111"/><circle cx="125.0" cy="601.6" r="2.6" fill="#111"/><circle cx="119.4" cy="599.1" r="2.6" fill="#111"/><circle cx="121.7" cy="593.2" r="2.6" fill="#111"/><circle cx="118.5" cy="589.7" r="2.6" fill="#111"/><circle cx="119.1" cy="584.6" r="2.6" fill="#111"/><circle cx="121.2" cy="579.0" r="2.6" fill="#111"/><circle cx="121.3" cy="574.2" r="2.6" fill="#111"/><circle cx="115.8" cy="571.5" r="2.6" fill="#111"/><circle cx="115.9" cy="566.7" r="2.6" fill="#111"/><circle cx="118.2" cy="561.2" r="2.6" fill="#111"/><circle cx="120.9" cy="555.7" r="2.6" fill="#111"/><circle cx="122.4" cy="550.6" r="2.6" fill="#111"/><circle cx="120.9" cy="546.5" r="2.6" fill="#111"/><circle cx="115.9" cy="543.4" r="2.6" fill="#111"/><circle cx="118.9" cy="538.0" r="2.6" fill="#111"/><circle cx="120.7" cy="532.9" r="2.6" fill="#111"/><circle cx="123.0" cy="527.8" r="2.6" fill="#111"/><circle cx="119.6" cy="524.2" r="2.6" fill="#111"/><circle cx="122.2" cy="519.1" r="2.6" fill="#111"/><circle cx="120.0" cy="515.2" r="2.6" fill="#111"/><circle cx="118.2" cy="511.2" r="2.6" fill="#111"/><circle cx="117.3" cy="507.0" r="2.6" fill="#111"/><circle cx="119.7" cy="502.1" r="2.6" fill="#111"/><circle cx="120.9" cy="497.5" r="2.6" fill="#111"/><circle cx="119.4" cy="493.4" r="2.6" fill="#111"/><circle cx="115.5" cy="489.8" r="2.6" fill="#111"/><circle cx="119.1" cy="484.8" r="2.6" fill="#111"/><circle cx="123.5" cy="479.7" r="2.6" fill="#111"/><circle cx="116.1" cy="476.6" r="2.6" fill="#111"/><circle cx="119.4" cy="471.8" r="2.6" fill="#111"/><circle cx="111.2" cy="468.7" r="2.6" fill="#111"/><circle cx="121.2" cy="463.0" r="2.6" fill="#111"/><circle cx="120.2" cy="458.9" r="2.6" fill="#111"/><circle cx="120.7" cy="454.6" r="2.6" fill="#111"/><circle cx="119.0" cy="450.6" r="2.6" fill="#111"/><circle cx="121.5" cy="446.1" r="2.6" fill="#111"/><circle cx="123.7" cy="441.7" r="2.6" fill="#111"/><circle cx="124.9" cy="437.4" r="2.6" fill="#111"/><circle cx="120.3" cy="433.5" r="2.6" fill="#111"/><circle cx="121.3" cy="429.3" r="2.6" fill="#111"/><circle cx="121.5" cy="425.1" r="2.6" fill="#111"/><circle cx="114.6" cy="421.2" r="2.6" fill="#111"/><circle cx="118.0" cy="416.8" r="2.6" fill="#111"/><circle cx="117.2" cy="412.6" r="2.6" fill="#111"/><circle cx="121.3" cy="408.4" r="2.6" fill="#111"/><circle cx="119.2" cy="404.2" r="2.6" fill="#111"/><circle cx="120.5" cy="400.0" r="2.6" fill="#111"/><circle cx="120.5" cy="395.8" r="2.6" fill="#111"/><circle cx="118.1" cy="391.6" r="2.6" fill="#111"/><circle cx="118.5" cy="387.4" r="2.6" fill="#111"/><circle cx="119.2" cy="383.2" r="2.6" fill="#111"/><circle cx="119.6" cy="379.0" r="2.6" fill="#111"/><circle cx="123.7" cy="375.0" r="2.6" fill="#111"/><circle cx="121.9" cy="370.8" r="2.6" fill="#111"/><circle cx="313.0" cy="379.9" r="2.6" fill="#111"/><circle cx="346.8" cy="380.1" r="2.6" fill="#111"/><circle cx="373.4" cy="380.2" r="2.6" fill="#111"/><circle cx="391.4" cy="379.9" r="2.6" fill="#111"/><circle cx="412.0" cy="380.2" r="2.6" fill="#111"/><circle cx="421.7" cy="379.7" r="2.6" fill="#111"/><circle cx="417.8" cy="377.6" r="2.6" fill="#111"/><circle cx="420.9" cy="376.4" r="2.6" fill="#111"/><circle cx="416.4" cy="374.2" r="2.6" fill="#111"/><circle cx="418.7" cy="372.9" r="2.6" fill="#111"/><circle cx="418.0" cy="371.2" r="2.6" fill="#111"/><circle cx="417.2" cy="369.4" r="2.6" fill="#111"/><circle cx="425.4" cy="369.2" r="2.6" fill="#111"/><circle cx="420.2" cy="366.7" r="2.6" fill="#111"/><circle cx="423.2" cy="365.6" r="2.6" fill="#111"/><circle cx="421.2" cy="363.6" r="2.6" fill="#111"/><circle cx="420.3" cy="361.8" r="2.6" fill="#111"/><circle cx="416.9" cy="359.4" r="2.6" fill="#111"/><circle cx="420.1" cy="358.5" r="2.6" fill="#111"/><circle cx="416.0" cy="355.8" r="2.6" fill="#111"/><circle cx="421.3" cy="355.4" r="2.6" fill="#111"/><circle cx="420.1" cy="353.5" r="2.6" fill="#111"/><circle cx="419.8" cy="351.7" r="2.6" fill="#111"/><circle cx="417.7" cy="349.4" r="2.6" fill="#111"/><circle cx="420.1" cy="348.4" r="2.6" fill="#111"/><circle cx="421.5" cy="347.1" r="2.6" fill="#111"/><circle cx="420.8" cy="345.2" r="2.6" fill="#111"/><circle cx="423.4" cy="344.3" r="2.6" fill="#111"/><circle cx="417.0" cy="340.5" r="2.6" fill="#111"/><circle cx="418.2" cy="339.2" r="2.6" fill="#111"/><circle cx="419.0" cy="337.7" r="2.6" fill="#111"/><circle cx="419.3" cy="336.0" r="2.6" fill="#111"/><circle cx="421.4" cy="335.0" r="2.6" fill="#111"/><circle cx="421.0" cy="333.1" r="2.6" fill="#111"/><circle cx="418.1" cy="330.2" r="2.6" fill="#111"/><circle cx="421.9" cy="329.8" r="2.6" fill="#111"/><circle cx="421.8" cy="328.0" r="2.6" fill="#111"/><circle cx="416.3" cy="323.9" r="2.6" fill="#111"/><circle cx="416.4" cy="322.1" r="2.6" fill="#111"/><circle cx="419.3" cy="321.4" r="2.6" fill="#111"/><circle cx="418.8" cy="319.3" r="2.6" fill="#111"/><circle cx="419.6" cy="317.8" r="2.6" fill="#111"/><circle cx="416.7" cy="314.5" r="2.6" fill="#111"/><circle cx="421.0" cy="314.6" r="2.6" fill="#111"/><circle cx="419.8" cy="312.1" r="2.6" fill="#111"/><circle cx="418.9" cy="309.7" r="2.6" fill="#111"/><circle cx="416.8" cy="306.6" r="2.6" fill="#111"/><circle cx="420.6" cy="306.6" r="2.6" fill="#111"/><circle cx="419.5" cy="304.0" r="2.6" fill="#111"/><circle cx="421.1" cy="302.9" r="2.6" fill="#111"/><circle cx="421.4" cy="301.0" r="2.6" fill="#111"/><circle cx="121.4" cy="129.2" r="2.6" fill="#111"/><circle cx="119.8" cy="122.8" r="2.6" fill="#111"/><circle cx="122.7" cy="118.9" r="2.6" fill="#111"/><circle cx="135.5" cy="120.9" r="2.6" fill="#111"/><circle cx="144.4" cy="120.8" r="2.6" fill="#111"/><circle cx="152.8" cy="120.5" r="2.6" fill="#111"/><circle cx="159.7" cy="119.5" r="2.6" fill="#111"/><circle cx="167.4" cy="119.0" r="2.6" fill="#111"/><circle cx="179.6" cy="121.7" r="2.6" fill="#111"/><circle cx="184.1" cy="119.5" r="2.6" fill="#111"/><circle cx="194.7" cy="121.4" r="2.6" fill="#111"/><circle cx="198.6" cy="119.0" r="2.6" fill="#111"/><circle cx="209.4" cy="121.4" r="2.6" fill="#111"/><circle cx="216.8" cy="121.6" r="2.6" fill="#111"/><circle cx="223.0" cy="121.1" r="2.6" fill="#111"/><circle cx="228.6" cy="120.1" r="2.6" fill="#111"/><circle cx="237.1" cy="121.5" r="2.6" fill="#111"/><circle cx="241.2" cy="119.7" r="2.6" fill="#111"/><circle cx="247.7" cy="119.8" r="2.6" fill="#111"/><circle cx="254.1" cy="119.9" r="2.6" fill="#111"/><circle cx="259.8" cy="119.6" r="2.6" fill="#111"/><circle cx="264.6" cy="118.6" r="2.6" fill="#111"/><circle cx="273.6" cy="121.2" r="2.6" fill="#111"/><circle cx="277.9" cy="120.0" r="2.6" fill="#111"/><circle cx="283.6" cy="120.0" r="2.6" fill="#111"/><circle cx="292.9" cy="123.5" r="2.6" fill="#111"/><circle cx="293.7" cy="119.3" r="2.6" fill="#111"/><circle cx="301.2" cy="121.3" r="2.6" fill="#111"/><circle cx="306.3" cy="121.2" r="2.6" fill="#111"/><circle cx="310.9" cy="120.8" r="2.6" fill="#111"/><circle cx="314.9" cy="119.8" r="2.6" fill="#111"/><circle cx="319.4" cy="119.4" r="2.6" fill="#111"/><circle cx="324.0" cy="119.1" r="2.6" fill="#111"/><circle cx="330.8" cy="121.3" r="2.6" fill="#111"/><circle cx="333.1" cy="118.7" r="2.6" fill="#111"/><circle cx="338.2" cy="119.2" r="2.6" fill="#111"/><circle cx="344.1" cy="120.7" r="2.6" fill="#111"/><circle cx="347.9" cy="120.0" r="2.6" fill="#111"/><circle cx="350.9" cy="118.5" r="2.6" fill="#111"/><circle cx="355.9" cy="119.2" r="2.6" fill="#111"/><circle cx="359.7" cy="118.7" r="2.6" fill="#111"/><circle cx="364.9" cy="119.8" r="2.6" fill="#111"/><circle cx="367.4" cy="117.8" r="2.6" fill="#111"/><circle cx="369.8" cy="115.7" r="2.6" fill="#111"/><circle cx="376.6" cy="119.1" r="2.6" fill="#111"/><circle cx="383.7" cy="123.2" r="2.6" fill="#111"/><circle cx="382.5" cy="116.6" r="2.6" fill="#111"/><circle cx="389.9" cy="121.1" r="2.6" fill="#111"/><circle cx="394.9" cy="122.8" r="2.6" fill="#111"/><circle cx="400.1" cy="124.8" r="2.6" fill="#111"/><circle cx="399.7" cy="119.1" r="2.6" fill="#111"/><circle cx="402.4" cy="117.8" r="2.6" fill="#111"/><circle cx="406.1" cy="117.9" r="2.6" fill="#111"/><circle cx="411.7" cy="120.8" r="2.6" fill="#111"/><circle cx="412.7" cy="117.0" r="2.6" fill="#111"/><circle cx="418.3" cy="120.2" r="2.6" fill="#111"/><circle cx="422.4" cy="121.2" r="2.6" fill="#111"/><circle cx="424.9" cy="119.9" r="2.6" fill="#111"/><circle cx="428.1" cy="119.5" r="2.6" fill="#111"/><circle cx="431.7" cy="119.9" r="2.6" fill="#111"/><circle cx="434.6" cy="119.1" r="2.6" fill="#111"/><circle cx="441.1" cy="124.7" r="2.6" fill="#111"/><circle cx="439.7" cy="116.6" r="2.6" fill="#111"/><circle cx="445.5" cy="121.2" r="2.6" fill="#111"/><circle cx="447.2" cy="118.6" r="2.6" fill="#111"/><circle cx="452.1" cy="121.8" r="2.6" fill="#111"/><circle cx="454.1" cy="119.6" r="2.6" fill="#111"/><circle cx="457.5" cy="120.4" r="2.6" fill="#111"/><circle cx="462.2" cy="123.5" r="2.6" fill="#111"/><circle cx="463.0" cy="119.1" r="2.6" fill="#111"/><circle cx="465.8" cy="118.6" r="2.6" fill="#111"/><circle cx="470.6" cy="122.5" r="2.6" fill="#111"/><circle cx="474.6" cy="124.8" r="2.6" fill="#111"/><circle cx="476.0" cy="121.5" r="2.6" fill="#111"/><circle cx="479.1" cy="121.9" r="2.6" fill="#111"/><circle cx="481.0" cy="119.7" r="2.6" fill="#111"/><circle cx="484.0" cy="120.0" r="2.6" fill="#111"/><circle cx="485.4" cy="116.3" r="2.6" fill="#111"/><circle cx="489.1" cy="118.5" r="2.6" fill="#111"/><circle cx="492.7" cy="120.6" r="2.6" fill="#111"/><circle cx="495.2" cy="119.6" r="2.6" fill="#111"/><circle cx="500.6" cy="126.8" r="2.6" fill="#111"/><circle cx="501.6" cy="122.1" r="2.6" fill="#111"/><circle cx="504.3" cy="122.2" r="2.6" fill="#111"/><circle cx="506.4" cy="120.3" r="2.6" fill="#111"/><circle cx="508.8" cy="119.2" r="2.6" fill="#111"/><circle cx="511.6" cy="119.5" r="2.6" fill="#111"/><circle cx="513.7" cy="117.8" r="2.6" fill="#111"/><circle cx="517.6" cy="121.7" r="2.6" fill="#111"/><circle cx="519.5" cy="119.3" r="2.6" fill="#111"/><circle cx="522.4" cy="120.3" r="2.6" fill="#111"/><circle cx="525.0" cy="120.0" r="2.6" fill="#111"/><circle cx="527.4" cy="119.2" r="2.6" fill="#111"/><circle cx="530.4" cy="120.7" r="2.6" fill="#111"/><circle cx="532.7" cy="119.5" r="2.6" fill="#111"/><circle cx="535.4" cy="120.1" r="2.6" fill="#111"/><circle cx="537.4" cy="117.5" r="2.6" fill="#111"/><circle cx="540.5" cy="120.3" r="2.6" fill="#111"/><circle cx="542.9" cy="119.3" r="2.6" fill="#111"/><circle cx="544.3" cy="113.6" r="2.6" fill="#111"/><circle cx="547.8" cy="118.5" r="2.6" fill="#111"/><circle cx="550.4" cy="118.7" r="2.6" fill="#111"/><circle cx="552.7" cy="117.3" r="2.6" fill="#111"/><circle cx="556.0" cy="122.5" r="2.6" fill="#111"/><circle cx="557.9" cy="118.2" r="2.6" fill="#111"/><circle cx="560.4" cy="118.1" r="2.6" fill="#111"/><circle cx="563.0" cy="118.9" r="2.6" fill="#111"/><circle cx="565.3" cy="117.6" r="2.6" fill="#111"/><circle cx="567.9" cy="118.1" r="2.6" fill="#111"/><circle cx="570.3" cy="117.0" r="2.6" fill="#111"/><circle cx="573.2" cy="121.6" r="2.6" fill="#111"/><circle cx="575.4" cy="118.9" r="2.6" fill="#111"/><circle cx="578.1" cy="121.4" r="2.6" fill="#111"/><circle cx="580.2" cy="116.9" r="2.6" fill="#111"/><circle cx="582.9" cy="119.7" r="2.6" fill="#111"/><circle cx="585.5" cy="123.2" r="2.6" fill="#111"/><circle cx="587.8" cy="119.7" r="2.6" fill="#111"/><circle cx="590.3" cy="122.5" r="2.6" fill="#111"/><circle cx="592.6" cy="117.6" r="2.6" fill="#111"/><circle cx="595.1" cy="120.8" r="2.6" fill="#111"/><circle cx="597.6" cy="125.5" r="2.6" fill="#111"/><circle cx="600.0" cy="121.0" r="2.6" fill="#111"/><circle cx="602.5" cy="117.4" r="2.6" fill="#111"/><circle cx="604.9" cy="119.2" r="2.6" fill="#111"/><circle cx="607.3" cy="121.6" r="2.6" fill="#111"/><circle cx="609.8" cy="118.4" r="2.6" fill="#111"/><circle cx="612.3" cy="118.6" r="2.6" fill="#111"/><circle cx="614.9" cy="116.3" r="2.6" fill="#111"/><circle cx="617.3" cy="117.8" r="2.6" fill="#111"/><circle cx="619.6" cy="119.1" r="2.6" fill="#111"/><circle cx="621.9" cy="122.0" r="2.6" fill="#111"/><circle cx="624.6" cy="119.3" r="2.6" fill="#111"/><circle cx="627.0" cy="119.3" r="2.6" fill="#111"/><circle cx="629.4" cy="120.0" r="2.6" fill="#111"/><circle cx="632.0" cy="119.0" r="2.6" fill="#111"/><circle cx="634.0" cy="122.9" r="2.6" fill="#111"/><circle cx="637.0" cy="118.6" r="2.6" fill="#111"/><circle cx="639.4" cy="120.0" r="2.6" fill="#111"/><circle cx="642.0" cy="119.1" r="2.6" fill="#111"/><circle cx="644.3" cy="120.2" r="2.6" fill="#111"/><circle cx="646.7" cy="120.7" r="2.6" fill="#111"/><circle cx="649.5" cy="119.4" r="2.6" fill="#111"/><circle cx="652.3" cy="118.1" r="2.6" fill="#111"/><circle cx="654.3" cy="120.8" r="2.6" fill="#111"/><circle cx="657.1" cy="119.2" r="2.6" fill="#111"/><circle cx="659.1" cy="121.9" r="2.6" fill="#111"/><circle cx="662.3" cy="119.0" r="2.6" fill="#111"/><circle cx="664.7" cy="120.0" r="2.6" fill="#111"/><circle cx="666.5" cy="123.1" r="2.6" fill="#111"/><circle cx="670.5" cy="117.2" r="2.6" fill="#111"/><circle cx="671.9" cy="122.1" r="2.6" fill="#111"/><circle cx="675.1" cy="119.8" r="2.6" fill="#111"/><circle cx="676.8" cy="123.1" r="2.6" fill="#111"/><circle cx="679.1" cy="124.1" r="2.6" fill="#111"/><circle cx="683.4" cy="118.4" r="2.6" fill="#111"/><circle cx="684.6" cy="123.3" r="2.6" fill="#111"/><circle cx="686.7" cy="124.9" r="2.6" fill="#111"/><circle cx="690.8" cy="120.5" r="2.6" fill="#111"/><circle cx="692.5" cy="123.6" r="2.6" fill="#111"/><circle cx="696.2" cy="120.5" r="2.6" fill="#111"/><circle cx="700.7" cy="115.7" r="2.6" fill="#111"/><circle cx="701.6" cy="120.9" r="2.6" fill="#111"/><circle cx="705.0" cy="119.2" r="2.6" fill="#111"/><circle cx="708.0" cy="118.7" r="2.6" fill="#111"/><circle cx="710.5" cy="119.4" r="2.6" fill="#111"/><circle cx="713.0" cy="120.3" r="2.6" fill="#111"/><circle cx="717.4" cy="116.5" r="2.6" fill="#111"/><circle cx="718.8" cy="120.2" r="2.6" fill="#111"/><circle cx="722.1" cy="119.2" r="2.6" fill="#111"/><circle cx="724.8" cy="119.7" r="2.6" fill="#111"/><circle cx="726.3" cy="122.9" r="2.6" fill="#111"/><circle cx="730.9" cy="119.3" r="2.6" fill="#111"/><circle cx="733.6" cy="119.9" r="2.6" fill="#111"/><circle cx="737.3" cy="118.6" r="2.6" fill="#111"/><circle cx="740.4" cy="118.5" r="2.6" fill="#111"/><circle cx="744.4" cy="116.5" r="2.6" fill="#111"/><circle cx="743.6" cy="124.2" r="2.6" fill="#111"/><circle cx="748.2" cy="121.2" r="2.6" fill="#111"/><circle cx="751.5" cy="121.0" r="2.6" fill="#111"/><circle cx="754.2" cy="121.9" r="2.6" fill="#111"/><circle cx="758.9" cy="119.1" r="2.6" fill="#111"/><circle cx="761.6" cy="120.2" r="2.6" fill="#111"/><circle cx="765.1" cy="119.7" r="2.6" fill="#111"/><circle cx="766.2" cy="123.5" r="2.6" fill="#111"/><circle cx="770.3" cy="122.0" r="2.6" fill="#111"/><circle cx="774.9" cy="120.1" r="2.6" fill="#111"/><circle cx="777.8" cy="120.9" r="2.6" fill="#111"/><circle cx="781.0" cy="121.3" r="2.6" fill="#111"/><circle cx="785.2" cy="120.2" r="2.6" fill="#111"/><circle cx="788.5" cy="120.6" r="2.6" fill="#111"/><circle cx="790.9" cy="122.2" r="2.6" fill="#111"/><circle cx="798.4" cy="116.6" r="2.6" fill="#111"/><circle cx="798.7" cy="121.4" r="2.6" fill="#111"/><circle cx="804.4" cy="118.7" r="2.6" fill="#111"/><circle cx="808.1" cy="118.8" r="2.6" fill="#111"/><circle cx="812.4" cy="118.1" r="2.6" fill="#111"/><circle cx="814.0" cy="121.1" r="2.6" fill="#111"/><circle cx="817.2" cy="121.9" r="2.6" fill="#111"/><circle cx="823.4" cy="119.2" r="2.6" fill="#111"/><circle cx="827.1" cy="119.5" r="2.6" fill="#111"/><circle cx="827.1" cy="124.5" r="2.6" fill="#111"/><circle cx="830.8" cy="125.0" r="2.6" fill="#111"/><circle cx="838.3" cy="121.0" r="2.6" fill="#111"/><circle cx="842.8" cy="120.7" r="2.6" fill="#111"/><circle cx="847.3" cy="120.5" r="2.6" fill="#111"/><circle cx="852.8" cy="119.2" r="2.6" fill="#111"/><circle cx="855.0" cy="121.8" r="2.6" fill="#111"/><circle cx="865.6" cy="115.2" r="2.6" fill="#111"/><circle cx="867.2" cy="118.4" r="2.6" fill="#111"/><circle cx="872.6" cy="117.7" r="2.6" fill="#111"/><circle cx="875.6" cy="119.5" r="2.6" fill="#111"/><circle cx="876.4" cy="123.6" r="2.6" fill="#111"/><circle cx="885.3" cy="119.6" r="2.6" fill="#111"/><circle cx="889.0" cy="120.9" r="2.6" fill="#111"/><circle cx="895.8" cy="119.3" r="2.6" fill="#111"/><circle cx="900.1" cy="120.2" r="2.6" fill="#111"/><circle cx="906.8" cy="118.9" r="2.6" fill="#111"/><circle cx="909.4" cy="121.5" r="2.6" fill="#111"/><circle cx="915.8" cy="120.6" r="2.6" fill="#111"/><circle cx="922.1" cy="120.0" r="2.6" fill="#111"/><circle cx="926.4" cy="121.2" r="2.6" fill="#111"/><circle cx="932.8" cy="120.7" r="2.6" fill="#111"/><circle cx="940.8" cy="119.0" r="2.6" fill="#111"/><circle cx="949.5" cy="117.0" r="2.6" fill="#111"/><circle cx="951.6" cy="120.3" r="2.6" fill="#111"/><circle cx="960.0" cy="118.7" r="2.6" fill="#111"/><circle cx="962.7" cy="121.7" r="2.6" fill="#111"/><circle cx="970.7" cy="120.7" r="2.6" fill="#111"/><circle cx="979.0" cy="119.5" r="2.6" fill="#111"/><circle cx="986.5" cy="119.2" r="2.6" fill="#111"/><circle cx="990.5" cy="121.5" r="2.6" fill="#111"/><circle cx="1001.1" cy="119.2" r="2.6" fill="#111"/><circle cx="1007.7" cy="119.8" r="2.6" fill="#111"/><circle cx="1017.8" cy="118.2" r="2.6" fill="#111"/><circle cx="1025.0" cy="118.7" r="2.6" fill="#111"/><circle cx="1032.3" cy="119.3" r="2.6" fill="#111"/><circle cx="1038.7" cy="120.5" r="2.6" fill="#111"/><circle cx="1048.6" cy="119.7" r="2.6" fill="#111"/><circle cx="1055.1" cy="121.1" r="2.6" fill="#111"/><circle cx="1064.2" cy="121.1" r="2.6" fill="#111"/><circle cx="1071.4" cy="122.3" r="2.6" fill="#111"/><circle cx="1077.2" cy="124.5" r="2.6" fill="#111"/><circle cx="1077.3" cy="130.0" r="2.6" fill="#111"/><circle cx="1079.8" cy="134.1" r="2.6" fill="#111"/><circle cx="1080.2" cy="139.3" r="2.6" fill="#111"/><circle cx="1077.1" cy="146.3" r="2.6" fill="#111"/><circle cx="1079.8" cy="150.2" r="2.6" fill="#111"/><circle cx="1080.9" cy="155.0" r="2.6" fill="#111"/><circle cx="1082.0" cy="159.7" r="2.6" fill="#111"/><circle cx="1079.8" cy="166.0" r="2.6" fill="#111"/><circle cx="1080.5" cy="170.8" r="2.6" fill="#111"/><circle cx="1079.2" cy="176.6" r="2.6" fill="#111"/><circle cx="1082.1" cy="180.3" r="2.6" fill="#111"/><circle cx="1076.5" cy="187.9" r="2.6" fill="#111"/><circle cx="1080.5" cy="191.1" r="2.6" fill="#111"/><circle cx="1074.7" cy="198.5" r="2.6" fill="#111"/><circle cx="1083.9" cy="199.6" r="2.6" fill="#111"/><circle cx="1082.1" cy="205.2" r="2.6" fill="#111"/><circle cx="1075.2" cy="212.8" r="2.6" fill="#111"/><circle cx="1078.8" cy="216.2" r="2.6" fill="#111"/><circle cx="1076.7" cy="221.8" r="2.6" fill="#111"/><circle cx="1075.9" cy="226.8" r="2.6" fill="#111"/><circle cx="1079.0" cy="230.4" r="2.6" fill="#111"/><circle cx="1077.9" cy="235.4" r="2.6" fill="#111"/><circle cx="1082.4" cy="238.6" r="2.6" fill="#111"/><circle cx="1078.8" cy="244.4" r="2.6" fill="#111"/><circle cx="1077.4" cy="249.5" r="2.6" fill="#111"/><circle cx="1079.8" cy="253.3" r="2.6" fill="#111"/><circle cx="1080.9" cy="257.5" r="2.6" fill="#111"/><circle cx="1081.9" cy="261.8" r="2.6" fill="#111"/><circle cx="1081.2" cy="266.6" r="2.6" fill="#111"/><circle cx="1076.4" cy="272.3" r="2.6" fill="#111"/><circle cx="1078.0" cy="276.4" r="2.6" fill="#111"/><circle cx="1079.5" cy="280.4" r="2.6" fill="#111"/><circle cx="1078.0" cy="285.2" r="2.6" fill="#111"/><circle cx="1081.8" cy="288.8" r="2.6" fill="#111"/><circle cx="1079.2" cy="293.8" r="2.6" fill="#111"/><circle cx="1079.8" cy="298.0" r="2.6" fill="#111"/><circle cx="1079.1" cy="302.5" r="2.6" fill="#111"/><circle cx="1080.1" cy="306.7" r="2.6" fill="#111"/><circle cx="1076.3" cy="311.7" r="2.6" fill="#111"/><circle cx="1085.1" cy="314.5" r="2.6" fill="#111"/><circle cx="1078.6" cy="319.9" r="2.6" fill="#111"/><circle cx="1078.2" cy="324.3" r="2.6" fill="#111"/><circle cx="1075.6" cy="328.9" r="2.6" fill="#111"/><circle cx="1079.8" cy="332.6" r="2.6" fill="#111"/><circle cx="1076.6" cy="337.3" r="2.6" fill="#111"/><circle cx="1080.8" cy="341.0" r="2.6" fill="#111"/><circle cx="1082.9" cy="345.0" r="2.6" fill="#111"/><circle cx="1081.5" cy="349.4" r="2.6" fill="#111"/><circle cx="1078.9" cy="353.9" r="2.6" fill="#111"/><circle cx="1083.1" cy="357.7" r="2.6" fill="#111"/><circle cx="1079.5" cy="362.3" r="2.6" fill="#111"/><circle cx="1079.8" cy="366.4" r="2.6" fill="#111"/><circle cx="1080.1" cy="370.6" r="2.6" fill="#111"/><circle cx="1078.8" cy="374.9" r="2.6" fill="#111"/><circle cx="1081.0" cy="379.0" r="2.6" fill="#111"/><circle cx="1076.9" cy="383.3" r="2.6" fill="#111"/><circle cx="1075.6" cy="387.5" r="2.6" fill="#111"/><circle cx="1082.9" cy="391.6" r="2.6" fill="#111"/><circle cx="1078.2" cy="395.8" r="2.6" fill="#111"/><circle cx="600" cy="400" r="9" fill="#566C6C"/><circle cx="600" cy="400" r="22" fill="none" stroke="#566C6C" stroke-opacity=".35" stroke-width="2"/><line x1="600" y1="400" x2="1009.3" y2="120.0" stroke="#566C6C" stroke-width="2" stroke-opacity=".6"/></svg>