<svg xmlns="http://www.w3.org/2000/svg" width="1200" height="700" viewBox="0 0 1200 700" role="img" aria-labelledby="title desc">
  <title id="title">Neural Networks Zero to Hero</title>
  <desc id="desc">Thumbnail graphic for Neural Networks: Zero to Hero coursework and code repository.</desc>
  <defs>
    <linearGradient id="bg" x1="0" y1="0" x2="1" y2="1">
      <stop offset="0%" stop-color="#0e1a2f"/>
      <stop offset="100%" stop-color="#1f4f78"/>
    </linearGradient>
  </defs>
  <rect width="1200" height="700" fill="url(#bg)"/>
  <g fill="none" stroke="#7ec8ff" stroke-width="2" opacity="0.45">
    <circle cx="230" cy="170" r="16"/>
    <circle cx="360" cy="120" r="16"/>
    <circle cx="500" cy="180" r="16"/>
    <circle cx="650" cy="130" r="16"/>
    <circle cx="780" cy="190" r="16"/>
    <circle cx="920" cy="140" r="16"/>
    <circle cx="280" cy="320" r="16"/>
    <circle cx="430" cy="290" r="16"/>
    <circle cx="580" cy="340" r="16"/>
    <circle cx="730" cy="300" r="16"/>
    <circle cx="880" cy="350" r="16"/>
    <circle cx="1030" cy="310" r="16"/>
    <circle cx="340" cy="500" r="16"/>
    <circle cx="500" cy="470" r="16"/>
    <circle cx="660" cy="520" r="16"/>
    <circle cx="820" cy="480" r="16"/>
    <circle cx="980" cy="530" r="16"/>
    <line x1="230" y1="170" x2="360" y2="120"/>
    <line x1="360" y1="120" x2="500" y2="180"/>
    <line x1="500" y1="180" x2="650" y2="130"/>
    <line x1="650" y1="130" x2="780" y2="190"/>
    <line x1="780" y1="190" x2="920" y2="140"/>
    <line x1="280" y1="320" x2="430" y2="290"/>
    <line x1="430" y1="290" x2="580" y2="340"/>
    <line x1="580" y1="340" x2="730" y2="300"/>
    <line x1="730" y1="300" x2="880" y2="350"/>
    <line x1="880" y1="350" x2="1030" y2="310"/>
    <line x1="340" y1="500" x2="500" y2="470"/>
    <line x1="500" y1="470" x2="660" y2="520"/>
    <line x1="660" y1="520" x2="820" y2="480"/>
    <line x1="820" y1="480" x2="980" y2="530"/>
    <line x1="360" y1="120" x2="430" y2="290"/>
    <line x1="500" y1="180" x2="580" y2="340"/>
    <line x1="650" y1="130" x2="730" y2="300"/>
    <line x1="780" y1="190" x2="880" y2="350"/>
    <line x1="430" y1="290" x2="500" y2="470"/>
    <line x1="580" y1="340" x2="660" y2="520"/>
    <line x1="730" y1="300" x2="820" y2="480"/>
    <line x1="880" y1="350" x2="980" y2="530"/>
  </g>
  <text x="600" y="290" text-anchor="middle" fill="#ffffff" font-family="Arial, sans-serif" font-size="64" font-weight="700">
    Neural Networks
  </text>
  <text x="600" y="365" text-anchor="middle" fill="#9fddff" font-family="Arial, sans-serif" font-size="56" font-weight="700">
    Zero to Hero
  </text>
  <text x="600" y="430" text-anchor="middle" fill="#dceeff" font-family="Arial, sans-serif" font-size="28">
    Repository and implementations
  </text>
</svg>
